<svg width="448" height="243" viewBox="0 0 448 243" fill="none" xmlns="http://www.w3.org/2000/svg">
<path d="M116.834 172.523V140.075H58.4132V127.846L109.713 58.3845H141.594V136.814H161.175V140.075H141.594V172.523H116.834ZM76.8619 136.814H116.834V82.5167L76.8619 136.814Z" fill="white"/>
<path d="M220.89 174.969C210.964 174.969 202.117 172.469 194.349 167.469C186.689 162.359 180.702 155.294 176.386 146.271C172.071 137.249 169.913 126.976 169.913 115.454C169.913 103.931 172.071 93.6588 176.386 84.6364C180.702 75.6141 186.689 68.6027 194.349 63.6023C202.117 58.4933 210.964 55.9387 220.89 55.9387C230.707 55.9387 239.446 58.4933 247.106 63.6023C254.874 68.6027 260.916 75.6141 265.231 84.6364C269.547 93.6588 271.704 103.931 271.704 115.454C271.704 126.976 269.547 137.249 265.231 146.271C260.916 155.294 254.874 162.359 247.106 167.469C239.446 172.469 230.707 174.969 220.89 174.969ZM220.89 152.304C225.96 152.304 230.438 150.837 234.322 147.902C238.205 144.858 241.172 140.564 243.222 135.021C245.38 129.368 246.459 122.846 246.459 115.454C246.459 108.062 245.38 101.594 243.222 96.0503C241.172 90.3977 238.205 86.1039 234.322 83.1689C230.438 80.1252 225.96 78.6034 220.89 78.6034C215.711 78.6034 211.18 80.1252 207.296 83.1689C203.52 86.1039 200.553 90.3977 198.395 96.0503C196.345 101.594 195.32 108.062 195.32 115.454C195.32 122.846 196.345 129.368 198.395 135.021C200.553 140.564 203.52 144.858 207.296 147.902C211.18 150.837 215.711 152.304 220.89 152.304Z" fill="white"/>
<path d="M341.405 172.523V140.075H282.984V127.846L334.285 58.3845H366.165V136.814H385.747V140.075H366.165V172.523H341.405ZM301.433 136.814H341.405V82.5167L301.433 136.814Z" fill="white"/>
<path d="M436.069 209.183C431.807 225.091 415.456 234.531 399.548 230.268C383.64 226.006 374.2 209.655 378.462 193.747C382.725 177.839 399.076 168.399 414.984 172.661C430.891 176.924 440.332 193.275 436.069 209.183Z" fill="#EB5230"/>
<path d="M397.393 195.215L398.811 189.921L403.793 191.256L402.375 196.55L397.393 195.215ZM394.197 207.141L395.616 201.848L400.598 203.183L399.179 208.476L394.197 207.141Z" fill="white"/>
<path d="M420.417 188.468C415.32 191.464 412.009 195.805 410.485 201.493C408.961 207.181 409.657 212.597 412.574 217.739L408.837 216.738C407.324 214.33 406.357 211.712 405.935 208.885C405.513 206.057 405.681 203.232 406.437 200.409C407.194 197.585 408.461 195.055 410.24 192.817C412.019 190.579 414.166 188.796 416.68 187.467L420.417 188.468Z" fill="white"/>
<path d="M76.8187 16.9421L76.7935 16.8444L76.696 16.8705L75.4095 17.2152L75.312 17.2414L75.339 17.3386L78.6754 29.3386L78.7019 29.434L78.7976 29.4084L79.8584 29.1241L79.9541 29.0985L79.9294 29.0026L76.8187 16.9421ZM79.1619 31.039L79.0653 31.0649L79.0912 31.1615L79.7988 33.8023L79.8247 33.8988L79.9213 33.873L81.1175 33.5524L81.2141 33.5265L81.1883 33.43L80.4807 30.7892L80.4548 30.6926L80.3582 30.7185L79.1619 31.039ZM76.5917 2.35812C73.8874 -0.34618 69.2698 0.891128 68.2799 4.58527L58.4877 41.1304C57.4978 44.8246 60.8782 48.205 64.5723 47.2151L101.118 37.4229C104.812 36.433 106.049 31.8153 103.345 29.111L76.5917 2.35812ZM75.0734 3.87645L101.826 30.6294C103.362 32.1649 102.659 34.7868 100.562 35.3488L64.0166 45.141C61.9191 45.7031 59.9997 43.7837 60.5617 41.6862L70.354 5.14102C70.916 3.0435 73.5379 2.34097 75.0734 3.87645Z" fill="#EB5230" stroke="#EB5230" stroke-width="0.2"/>
<path d="M2.81718 167.998C3.74524 170.878 5.08043 173.873 7.17898 176.094C9.43061 178.478 11.8726 180.212 14.9854 181.329C19.4971 182.948 24.9561 184.402 29.7934 184.171C36.6346 183.844 45.2532 182.126 49.7626 176.539C50.5897 175.514 52.6537 173.288 51.9676 171.757C49.9493 167.253 42.072 168.93 38.7314 170.243C34.7035 171.827 31.7071 176.821 30.8695 180.966C30.025 185.146 31.8593 188.881 35.0294 191.738C41.1111 197.22 49.7394 197.587 57.4691 196.974C64.5345 196.414 71.5639 193.558 77.7234 190.18" stroke="#EB5230" stroke-width="2" stroke-linecap="round"/>
</svg>
